<svg width="1258" height="254" viewBox="0 0 1258 254" fill="none" xmlns="http://www.w3.org/2000/svg">
<mask id="path-1-outside-1_19_75" maskUnits="userSpaceOnUse" x="-1" y="0" width="1259" height="254" fill="black">
<rect fill="white" x="-1" width="1259" height="254"/>
<path fill-rule="evenodd" clip-rule="evenodd" d="M1115.95 11.1313C1071.25 19.2786 1035.49 53.8611 1024.99 99.1021C1022.11 111.508 1021.62 116.176 1021.61 131.809C1021.6 151.417 1024.4 164.242 1032.15 180.136C1047.23 211.041 1078.07 233.65 1116.38 241.887C1128.5 244.492 1151.76 244.731 1162.82 242.367C1184.21 237.794 1199.77 230.246 1216.42 216.352C1223.58 210.386 1226.77 205.542 1228.14 198.569C1230.8 185 1225.16 173.409 1213.24 167.948C1208.8 165.91 1206.83 165.533 1200.67 165.526C1194.51 165.52 1192.56 165.889 1188.34 167.856C1185.58 169.142 1181.42 171.901 1179.11 173.988C1174.17 178.439 1163 184.153 1155.08 186.277C1147.2 188.393 1131.73 188.397 1123.26 186.288C1100.72 180.672 1083.2 163.848 1078.95 143.746C1077.35 136.2 1077.36 119.754 1078.97 112.033C1082.91 93.0427 1098.4 76.4851 1118.53 69.7429C1126.92 66.9326 1140.14 65.9808 1148.37 67.5929C1163.21 70.4981 1176.39 80.0704 1183.05 92.7875L1186.09 98.5815L1150.93 98.8418L1115.78 99.1021L1109.91 102.119C1105.47 104.409 1103.36 106.148 1101.18 109.334C1093.29 120.87 1094.25 137.783 1103.32 147.235C1107.35 151.43 1111.24 153.441 1117.64 154.627C1125.26 156.038 1218.39 155.874 1225.22 154.437C1235.4 152.298 1243.92 144.784 1246.66 135.527C1250.57 122.328 1245.61 93.4393 1235.93 73.0308C1230.14 60.8335 1224.1 52.3396 1213.87 42.0284C1197.04 25.0639 1177.44 15.1286 1152.96 11.1485C1143.59 9.62438 1124.27 9.61576 1115.95 11.1313ZM539.883 11.6563C491.405 18.3967 452.887 54.7689 442.926 103.211C437.236 130.884 442.16 161.608 456.083 185.308C489.584 242.335 560.989 259.743 615.447 224.162C619.489 221.52 622.93 219.36 623.093 219.36C623.257 219.36 624.479 221.516 625.81 224.151C628.685 229.849 633.33 234.28 639.386 237.107C644.776 239.623 654.607 239.947 660.849 237.815C666.037 236.042 672.946 229.786 675.889 224.194L678.207 219.791L678.438 127.839L678.667 35.8862L676.8 30.8837C672.97 20.6234 662.348 13.3269 651.24 13.3269C639.841 13.3269 630.886 18.6941 626.131 28.376C624.607 31.4785 623.232 34.0164 623.075 34.0164C622.918 34.0164 619.778 32.0432 616.098 29.632C603.389 21.3045 589.682 15.6873 575.201 12.8726C566.549 11.1916 547.857 10.5476 539.883 11.6563ZM29.7571 15.3433C24.0664 17.2329 21.2533 19.0269 17.3806 23.2389C11.8877 29.2122 10.0542 33.9397 10.0249 42.206L10 49.1025L33.3734 97.8091C54.2933 141.404 73.1422 180.608 89.8479 215.274C98.4764 233.18 103.71 237.499 117.565 238.151C126.598 238.576 130.615 237.27 137.391 231.705C141.674 228.187 139.817 231.714 165.224 178.843C171.489 165.804 180.271 147.572 184.737 138.326C189.204 129.08 194.244 118.497 195.937 114.807C197.629 111.118 199.341 108.208 199.74 108.342C200.422 108.57 204.354 116.58 229.903 169.791C257.013 226.254 257.606 227.384 262.315 231.628C267.784 236.556 272.805 238.325 281.326 238.325C286.964 238.325 288.681 237.942 293.211 235.674C296.175 234.189 299.865 231.437 301.594 229.424C303.388 227.332 309.1 216.62 315.232 203.843C332.944 166.939 335.712 161.179 347.961 135.74C354.468 122.227 362.87 104.77 366.633 96.947C370.396 89.1238 377.023 75.3523 381.359 66.3438L389.243 49.9646L389.225 42.206C389.212 35.7337 388.858 33.7328 387.096 30.1372C382.667 21.1002 374.105 15.1916 364.294 14.4019C357.332 13.8416 351.716 15.2338 346.166 18.8941C340.693 22.5036 337.509 27.3415 329.688 43.9301C326.335 51.0422 319.759 64.8136 315.072 74.5334C310.386 84.2531 300.803 104.142 293.775 118.73C286.748 133.318 280.722 144.956 280.385 144.591C280.048 144.228 274.74 133.455 268.591 120.654C262.442 107.852 254.615 91.5591 251.198 84.4471C247.78 77.3351 240.174 61.43 234.297 49.1025C222.699 24.7786 220.269 21.2614 212.08 16.9545C206.225 13.8752 194.433 13.6312 188.325 16.4623C178.93 20.8165 177.978 22.3493 155.738 68.93C149.355 82.2988 141.568 98.4858 131.688 118.93C127.333 127.938 122.837 137.323 121.697 139.785C120.556 142.247 119.283 144.473 118.866 144.73C118.45 144.988 117.32 143.362 116.354 141.116C115.388 138.87 108.616 124.619 101.307 109.447C93.9966 94.2746 81.9513 69.2532 74.5397 53.8439C59.9478 23.5079 58.319 21.0545 50.1162 17.0304C44.6362 14.3433 35.1399 13.5562 29.7571 15.3433ZM774.286 15.4062C761.19 19.6864 752.633 35.0406 755.96 48.2879C756.517 50.5025 761.936 62.6481 768.004 75.2782C790.157 121.387 800.898 143.763 816.893 177.119C842.053 229.589 841.061 227.672 844.82 231.076C850.635 236.342 855.961 238.307 864.446 238.317C873.572 238.327 878.768 236.044 884.688 229.421C888.724 224.908 888.524 225.306 928.458 141.774C936.566 124.813 958.152 79.9825 967.95 59.7542C970.164 55.1809 972.307 49.362 972.712 46.8232C974.832 33.507 967.401 20.6131 954.875 15.8752C950.959 14.3942 948.672 14.095 943.521 14.3924C931.374 15.0942 924.49 20.576 917.413 35.1811C913.437 43.3862 896.208 79.1592 870.641 132.292L864.212 145.654L856.911 130.567C852.896 122.27 842.922 101.516 834.747 84.4471C805.547 23.4829 806.352 25.045 802.318 21.5243C800.278 19.7441 796.867 17.4933 794.739 16.5226C789.832 14.2855 779.448 13.7192 774.286 15.4062ZM546.859 67.6955C524.407 70.2455 504.671 88.1453 498.412 111.633C496.423 119.099 496.411 134.199 498.39 141.774C507.774 177.695 546.529 196.513 578.462 180.657C590.597 174.632 599.529 165.365 605.552 152.55C613.783 135.042 613.603 117.336 605.017 99.6444C597.767 84.7074 583.135 72.5567 568.125 69.0101C561.138 67.3593 553.808 66.9067 546.859 67.6955Z"/>
</mask>
<path fill-rule="evenodd" clip-rule="evenodd" d="M1115.95 11.1313C1071.25 19.2786 1035.49 53.8611 1024.99 99.1021C1022.11 111.508 1021.62 116.176 1021.61 131.809C1021.6 151.417 1024.4 164.242 1032.15 180.136C1047.23 211.041 1078.07 233.65 1116.38 241.887C1128.5 244.492 1151.76 244.731 1162.82 242.367C1184.21 237.794 1199.77 230.246 1216.42 216.352C1223.58 210.386 1226.77 205.542 1228.14 198.569C1230.8 185 1225.16 173.409 1213.24 167.948C1208.8 165.91 1206.83 165.533 1200.67 165.526C1194.51 165.52 1192.56 165.889 1188.34 167.856C1185.58 169.142 1181.42 171.901 1179.11 173.988C1174.17 178.439 1163 184.153 1155.08 186.277C1147.2 188.393 1131.73 188.397 1123.26 186.288C1100.72 180.672 1083.2 163.848 1078.95 143.746C1077.35 136.2 1077.36 119.754 1078.97 112.033C1082.91 93.0427 1098.4 76.4851 1118.53 69.7429C1126.92 66.9326 1140.14 65.9808 1148.37 67.5929C1163.21 70.4981 1176.39 80.0704 1183.05 92.7875L1186.09 98.5815L1150.93 98.8418L1115.78 99.1021L1109.91 102.119C1105.47 104.409 1103.36 106.148 1101.18 109.334C1093.29 120.87 1094.25 137.783 1103.32 147.235C1107.35 151.43 1111.24 153.441 1117.64 154.627C1125.26 156.038 1218.39 155.874 1225.22 154.437C1235.4 152.298 1243.92 144.784 1246.66 135.527C1250.57 122.328 1245.61 93.4393 1235.93 73.0308C1230.14 60.8335 1224.1 52.3396 1213.87 42.0284C1197.04 25.0639 1177.44 15.1286 1152.96 11.1485C1143.59 9.62438 1124.27 9.61576 1115.95 11.1313ZM539.883 11.6563C491.405 18.3967 452.887 54.7689 442.926 103.211C437.236 130.884 442.16 161.608 456.083 185.308C489.584 242.335 560.989 259.743 615.447 224.162C619.489 221.52 622.93 219.36 623.093 219.36C623.257 219.36 624.479 221.516 625.81 224.151C628.685 229.849 633.33 234.28 639.386 237.107C644.776 239.623 654.607 239.947 660.849 237.815C666.037 236.042 672.946 229.786 675.889 224.194L678.207 219.791L678.438 127.839L678.667 35.8862L676.8 30.8837C672.97 20.6234 662.348 13.3269 651.24 13.3269C639.841 13.3269 630.886 18.6941 626.131 28.376C624.607 31.4785 623.232 34.0164 623.075 34.0164C622.918 34.0164 619.778 32.0432 616.098 29.632C603.389 21.3045 589.682 15.6873 575.201 12.8726C566.549 11.1916 547.857 10.5476 539.883 11.6563ZM29.7571 15.3433C24.0664 17.2329 21.2533 19.0269 17.3806 23.2389C11.8877 29.2122 10.0542 33.9397 10.0249 42.206L10 49.1025L33.3734 97.8091C54.2933 141.404 73.1422 180.608 89.8479 215.274C98.4764 233.18 103.71 237.499 117.565 238.151C126.598 238.576 130.615 237.27 137.391 231.705C141.674 228.187 139.817 231.714 165.224 178.843C171.489 165.804 180.271 147.572 184.737 138.326C189.204 129.08 194.244 118.497 195.937 114.807C197.629 111.118 199.341 108.208 199.74 108.342C200.422 108.57 204.354 116.58 229.903 169.791C257.013 226.254 257.606 227.384 262.315 231.628C267.784 236.556 272.805 238.325 281.326 238.325C286.964 238.325 288.681 237.942 293.211 235.674C296.175 234.189 299.865 231.437 301.594 229.424C303.388 227.332 309.1 216.62 315.232 203.843C332.944 166.939 335.712 161.179 347.961 135.74C354.468 122.227 362.87 104.77 366.633 96.947C370.396 89.1238 377.023 75.3523 381.359 66.3438L389.243 49.9646L389.225 42.206C389.212 35.7337 388.858 33.7328 387.096 30.1372C382.667 21.1002 374.105 15.1916 364.294 14.4019C357.332 13.8416 351.716 15.2338 346.166 18.8941C340.693 22.5036 337.509 27.3415 329.688 43.9301C326.335 51.0422 319.759 64.8136 315.072 74.5334C310.386 84.2531 300.803 104.142 293.775 118.73C286.748 133.318 280.722 144.956 280.385 144.591C280.048 144.228 274.74 133.455 268.591 120.654C262.442 107.852 254.615 91.5591 251.198 84.4471C247.78 77.3351 240.174 61.43 234.297 49.1025C222.699 24.7786 220.269 21.2614 212.08 16.9545C206.225 13.8752 194.433 13.6312 188.325 16.4623C178.93 20.8165 177.978 22.3493 155.738 68.93C149.355 82.2988 141.568 98.4858 131.688 118.93C127.333 127.938 122.837 137.323 121.697 139.785C120.556 142.247 119.283 144.473 118.866 144.73C118.45 144.988 117.32 143.362 116.354 141.116C115.388 138.87 108.616 124.619 101.307 109.447C93.9966 94.2746 81.9513 69.2532 74.5397 53.8439C59.9478 23.5079 58.319 21.0545 50.1162 17.0304C44.6362 14.3433 35.1399 13.5562 29.7571 15.3433ZM774.286 15.4062C761.19 19.6864 752.633 35.0406 755.96 48.2879C756.517 50.5025 761.936 62.6481 768.004 75.2782C790.157 121.387 800.898 143.763 816.893 177.119C842.053 229.589 841.061 227.672 844.82 231.076C850.635 236.342 855.961 238.307 864.446 238.317C873.572 238.327 878.768 236.044 884.688 229.421C888.724 224.908 888.524 225.306 928.458 141.774C936.566 124.813 958.152 79.9825 967.95 59.7542C970.164 55.1809 972.307 49.362 972.712 46.8232C974.832 33.507 967.401 20.6131 954.875 15.8752C950.959 14.3942 948.672 14.095 943.521 14.3924C931.374 15.0942 924.49 20.576 917.413 35.1811C913.437 43.3862 896.208 79.1592 870.641 132.292L864.212 145.654L856.911 130.567C852.896 122.27 842.922 101.516 834.747 84.4471C805.547 23.4829 806.352 25.045 802.318 21.5243C800.278 19.7441 796.867 17.4933 794.739 16.5226C789.832 14.2855 779.448 13.7192 774.286 15.4062ZM546.859 67.6955C524.407 70.2455 504.671 88.1453 498.412 111.633C496.423 119.099 496.411 134.199 498.39 141.774C507.774 177.695 546.529 196.513 578.462 180.657C590.597 174.632 599.529 165.365 605.552 152.55C613.783 135.042 613.603 117.336 605.017 99.6444C597.767 84.7074 583.135 72.5567 568.125 69.0101C561.138 67.3593 553.808 66.9067 546.859 67.6955Z" fill="black"/>
<path fill-rule="evenodd" clip-rule="evenodd" d="M1115.95 11.1313C1071.25 19.2786 1035.49 53.8611 1024.99 99.1021C1022.11 111.508 1021.62 116.176 1021.61 131.809C1021.6 151.417 1024.4 164.242 1032.15 180.136C1047.23 211.041 1078.07 233.65 1116.38 241.887C1128.5 244.492 1151.76 244.731 1162.82 242.367C1184.21 237.794 1199.77 230.246 1216.42 216.352C1223.58 210.386 1226.77 205.542 1228.14 198.569C1230.8 185 1225.16 173.409 1213.24 167.948C1208.8 165.91 1206.83 165.533 1200.67 165.526C1194.51 165.52 1192.56 165.889 1188.34 167.856C1185.58 169.142 1181.42 171.901 1179.11 173.988C1174.17 178.439 1163 184.153 1155.08 186.277C1147.2 188.393 1131.73 188.397 1123.26 186.288C1100.72 180.672 1083.2 163.848 1078.95 143.746C1077.35 136.2 1077.36 119.754 1078.97 112.033C1082.91 93.0427 1098.4 76.4851 1118.53 69.7429C1126.92 66.9326 1140.14 65.9808 1148.37 67.5929C1163.21 70.4981 1176.39 80.0704 1183.05 92.7875L1186.09 98.5815L1150.93 98.8418L1115.78 99.1021L1109.91 102.119C1105.47 104.409 1103.36 106.148 1101.18 109.334C1093.29 120.87 1094.25 137.783 1103.32 147.235C1107.35 151.43 1111.24 153.441 1117.64 154.627C1125.26 156.038 1218.39 155.874 1225.22 154.437C1235.4 152.298 1243.92 144.784 1246.66 135.527C1250.57 122.328 1245.61 93.4393 1235.93 73.0308C1230.14 60.8335 1224.1 52.3396 1213.87 42.0284C1197.04 25.0639 1177.44 15.1286 1152.96 11.1485C1143.59 9.62438 1124.27 9.61576 1115.95 11.1313ZM539.883 11.6563C491.405 18.3967 452.887 54.7689 442.926 103.211C437.236 130.884 442.16 161.608 456.083 185.308C489.584 242.335 560.989 259.743 615.447 224.162C619.489 221.52 622.93 219.36 623.093 219.36C623.257 219.36 624.479 221.516 625.81 224.151C628.685 229.849 633.33 234.28 639.386 237.107C644.776 239.623 654.607 239.947 660.849 237.815C666.037 236.042 672.946 229.786 675.889 224.194L678.207 219.791L678.438 127.839L678.667 35.8862L676.8 30.8837C672.97 20.6234 662.348 13.3269 651.24 13.3269C639.841 13.3269 630.886 18.6941 626.131 28.376C624.607 31.4785 623.232 34.0164 623.075 34.0164C622.918 34.0164 619.778 32.0432 616.098 29.632C603.389 21.3045 589.682 15.6873 575.201 12.8726C566.549 11.1916 547.857 10.5476 539.883 11.6563ZM29.7571 15.3433C24.0664 17.2329 21.2533 19.0269 17.3806 23.2389C11.8877 29.2122 10.0542 33.9397 10.0249 42.206L10 49.1025L33.3734 97.8091C54.2933 141.404 73.1422 180.608 89.8479 215.274C98.4764 233.18 103.71 237.499 117.565 238.151C126.598 238.576 130.615 237.27 137.391 231.705C141.674 228.187 139.817 231.714 165.224 178.843C171.489 165.804 180.271 147.572 184.737 138.326C189.204 129.08 194.244 118.497 195.937 114.807C197.629 111.118 199.341 108.208 199.74 108.342C200.422 108.57 204.354 116.58 229.903 169.791C257.013 226.254 257.606 227.384 262.315 231.628C267.784 236.556 272.805 238.325 281.326 238.325C286.964 238.325 288.681 237.942 293.211 235.674C296.175 234.189 299.865 231.437 301.594 229.424C303.388 227.332 309.1 216.62 315.232 203.843C332.944 166.939 335.712 161.179 347.961 135.74C354.468 122.227 362.87 104.77 366.633 96.947C370.396 89.1238 377.023 75.3523 381.359 66.3438L389.243 49.9646L389.225 42.206C389.212 35.7337 388.858 33.7328 387.096 30.1372C382.667 21.1002 374.105 15.1916 364.294 14.4019C357.332 13.8416 351.716 15.2338 346.166 18.8941C340.693 22.5036 337.509 27.3415 329.688 43.9301C326.335 51.0422 319.759 64.8136 315.072 74.5334C310.386 84.2531 300.803 104.142 293.775 118.73C286.748 133.318 280.722 144.956 280.385 144.591C280.048 144.228 274.74 133.455 268.591 120.654C262.442 107.852 254.615 91.5591 251.198 84.4471C247.78 77.3351 240.174 61.43 234.297 49.1025C222.699 24.7786 220.269 21.2614 212.08 16.9545C206.225 13.8752 194.433 13.6312 188.325 16.4623C178.93 20.8165 177.978 22.3493 155.738 68.93C149.355 82.2988 141.568 98.4858 131.688 118.93C127.333 127.938 122.837 137.323 121.697 139.785C120.556 142.247 119.283 144.473 118.866 144.73C118.45 144.988 117.32 143.362 116.354 141.116C115.388 138.87 108.616 124.619 101.307 109.447C93.9966 94.2746 81.9513 69.2532 74.5397 53.8439C59.9478 23.5079 58.319 21.0545 50.1162 17.0304C44.6362 14.3433 35.1399 13.5562 29.7571 15.3433ZM774.286 15.4062C761.19 19.6864 752.633 35.0406 755.96 48.2879C756.517 50.5025 761.936 62.6481 768.004 75.2782C790.157 121.387 800.898 143.763 816.893 177.119C842.053 229.589 841.061 227.672 844.82 231.076C850.635 236.342 855.961 238.307 864.446 238.317C873.572 238.327 878.768 236.044 884.688 229.421C888.724 224.908 888.524 225.306 928.458 141.774C936.566 124.813 958.152 79.9825 967.95 59.7542C970.164 55.1809 972.307 49.362 972.712 46.8232C974.832 33.507 967.401 20.6131 954.875 15.8752C950.959 14.3942 948.672 14.095 943.521 14.3924C931.374 15.0942 924.49 20.576 917.413 35.1811C913.437 43.3862 896.208 79.1592 870.641 132.292L864.212 145.654L856.911 130.567C852.896 122.27 842.922 101.516 834.747 84.4471C805.547 23.4829 806.352 25.045 802.318 21.5243C800.278 19.7441 796.867 17.4933 794.739 16.5226C789.832 14.2855 779.448 13.7192 774.286 15.4062ZM546.859 67.6955C524.407 70.2455 504.671 88.1453 498.412 111.633C496.423 119.099 496.411 134.199 498.39 141.774C507.774 177.695 546.529 196.513 578.462 180.657C590.597 174.632 599.529 165.365 605.552 152.55C613.783 135.042 613.603 117.336 605.017 99.6444C597.767 84.7074 583.135 72.5567 568.125 69.0101C561.138 67.3593 553.808 66.9067 546.859 67.6955Z" stroke="white" stroke-width="20" mask="url(#path-1-outside-1_19_75)"/>
</svg>
